<svg width="26" height="25" viewBox="0 0 26 25" fill="none" xmlns="http://www.w3.org/2000/svg">
<path d="M15.276 7.60177H4.63352C4.43191 7.60177 4.23856 7.52168 4.096 7.37912C3.95344 7.23656 3.87335 7.0432 3.87335 6.84159V3.80089C3.87335 3.59928 3.95344 3.40592 4.096 3.26336C4.23856 3.1208 4.43191 3.04071 4.63352 3.04071H15.276C15.4776 3.04071 15.671 3.1208 15.8135 3.26336C15.9561 3.40592 16.0362 3.59928 16.0362 3.80089V6.84159C16.0362 7.0432 15.9561 7.23656 15.8135 7.37912C15.671 7.52168 15.4776 7.60177 15.276 7.60177ZM5.3937 6.08141H14.5158V4.51545H5.3937V6.08141Z" fill="white"/>
<path d="M15.276 9.18295H4.63352C4.43191 9.18295 4.23856 9.26304 4.096 9.4056C3.95344 9.54816 3.87335 9.74152 3.87335 9.94313V12.923C3.87335 13.1246 3.95344 13.318 4.096 13.4605C4.23856 13.6031 4.43191 13.6832 4.63352 13.6832H13.2691L16.0362 10.8705V9.94313C16.0362 9.74152 15.9561 9.54816 15.8135 9.4056C15.671 9.26304 15.4776 9.18295 15.276 9.18295ZM14.5158 12.1628H5.3937V10.6425H14.5158V12.1628Z" fill="white"/>
<path d="M7.71984 22.4328V22.3872L7.96309 21.3305H2.35299V1.52035H17.5565V9.31216L19.0769 7.87542V0.760176C19.0769 0.558565 18.9968 0.365211 18.8542 0.22265C18.7117 0.0800897 18.5183 0 18.3167 0H1.59282C1.39121 0 1.19785 0.0800897 1.05529 0.22265C0.912731 0.365211 0.832642 0.558565 0.832642 0.760176V22.0451C0.832642 22.2467 0.912731 22.4401 1.05529 22.5826C1.19785 22.7252 1.39121 22.8053 1.59282 22.8053H7.67423C7.68049 22.6802 7.69573 22.5557 7.71984 22.4328Z" fill="white"/>
<path d="M3.87335 18.9588C3.87335 19.1604 3.95344 19.3538 4.096 19.4963C4.23856 19.6389 4.43191 19.719 4.63352 19.719H8.31277L8.54083 18.7307L8.63965 18.3126V18.2746H5.3937V16.7239H10.2132L11.7336 15.2035H4.63352C4.43191 15.2035 4.23856 15.2836 4.096 15.4262C3.95344 15.5687 3.87335 15.7621 3.87335 15.9637V18.9588Z" fill="white"/>
<path d="M24.7706 11.1518L22.2088 8.59C22.0951 8.476 21.96 8.38555 21.8113 8.32383C21.6626 8.26211 21.5032 8.23035 21.3422 8.23035C21.1812 8.23035 21.0217 8.26211 20.873 8.32383C20.7243 8.38555 20.5893 8.476 20.4756 8.59L10.0536 19.0728L9.19456 22.7293C9.1624 22.887 9.16168 23.0496 9.19244 23.2076C9.22319 23.3656 9.28482 23.516 9.3738 23.6502C9.46277 23.7843 9.57734 23.8996 9.71094 23.9895C9.84455 24.0793 9.99456 24.1419 10.1524 24.1736C10.2307 24.1815 10.3097 24.1815 10.388 24.1736C10.4812 24.1888 10.5762 24.1888 10.6693 24.1736L14.3562 23.3602L24.7706 12.923C24.8843 12.81 24.9746 12.6755 25.0362 12.5275C25.0979 12.3794 25.1296 12.2206 25.1296 12.0602C25.1296 11.8998 25.0979 11.741 25.0362 11.5929C24.9746 11.4449 24.8843 11.3104 24.7706 11.1974V11.1518ZM13.5808 21.9767L10.7985 22.5924L11.4751 19.833L19.2897 11.9348L21.4334 14.0785L13.5808 21.9767ZM22.2924 13.2195L20.1487 11.0758L21.3574 9.8823L23.5163 12.0412L22.2924 13.2195Z" fill="white"/>
</svg>
