<svg width="14" height="22" viewBox="0 0 14 22" fill="none" xmlns="http://www.w3.org/2000/svg">
<path d="M2 0H12C12.5304 0 13.0391 0.231785 13.4142 0.644365C13.7893 1.05694 14 1.61652 14 2.2V19.8C14 20.3835 13.7893 20.9431 13.4142 21.3556C13.0391 21.7682 12.5304 22 12 22H2C1.46957 22 0.960859 21.7682 0.585786 21.3556C0.210714 20.9431 0 20.3835 0 19.8V2.2C0 1.61652 0.210714 1.05694 0.585786 0.644365C0.960859 0.231785 1.46957 0 2 0ZM2 2.2V6.6H12V2.2H2ZM2 8.8V11H4V8.8H2ZM6 8.8V11H8V8.8H6ZM10 8.8V11H12V8.8H10ZM2 13.2V15.4H4V13.2H2ZM6 13.2V15.4H8V13.2H6ZM10 13.2V15.4H12V13.2H10ZM2 17.6V19.8H4V17.6H2ZM6 17.6V19.8H8V17.6H6ZM10 17.6V19.8H12V17.6H10Z" fill="white"/>
</svg>
