<svg width="40" height="39" viewBox="0 0 40 39" fill="none" xmlns="http://www.w3.org/2000/svg">
<path d="M20.3043 0C9.53573 0 0.80426 8.73147 0.80426 19.5C0.80426 30.2685 9.53573 39 20.3043 39C31.0728 39 39.8043 30.2685 39.8043 19.5C39.8043 8.73147 31.0728 0 20.3043 0ZM29.6756 14.699C29.6886 14.9036 29.6886 15.1169 29.6886 15.3258C29.6886 21.7155 24.8223 29.0759 15.9298 29.0759C13.1876 29.0759 10.6457 28.2794 8.50415 26.9083C8.89589 26.9518 9.27022 26.9692 9.67067 26.9692C11.9341 26.9692 14.0146 26.2031 15.673 24.906C13.5489 24.8625 11.7643 23.4696 11.1549 21.5545C11.8992 21.6633 12.5696 21.6633 13.3356 21.4674C12.2419 21.2452 11.2589 20.6512 10.5535 19.7863C9.84807 18.9215 9.46386 17.839 9.46609 16.723V16.6621C10.1059 17.0233 10.8589 17.2453 11.6468 17.2758C10.9845 16.8344 10.4413 16.2364 10.0655 15.5348C9.68966 14.8333 9.49274 14.0498 9.49221 13.2539C9.49221 12.3529 9.72725 11.5302 10.1495 10.8164C11.3634 12.3108 12.8783 13.5331 14.5956 14.4037C16.3128 15.2744 18.1941 15.7739 20.1171 15.8699C19.4337 12.5836 21.8886 9.92411 24.8398 9.92411C26.2326 9.92411 27.4862 10.5074 28.3698 11.4475C29.4623 11.243 30.5069 10.8338 31.4384 10.2854C31.0771 11.404 30.3198 12.3485 29.3143 12.9449C30.2893 12.8404 31.2295 12.5705 32.1 12.1919C31.4428 13.1581 30.6201 14.0156 29.6756 14.699Z" fill="#219ED3"/>
</svg>
