<svg width="23" height="23" viewBox="0 0 23 23" fill="none" xmlns="http://www.w3.org/2000/svg">
<path d="M11.4999 0.478241C8.50886 0.478241 8.13275 0.492018 6.95755 0.544371C5.78236 0.59948 4.98191 0.784094 4.28065 1.05688C3.54508 1.33355 2.87881 1.76755 2.32842 2.32852C1.7678 2.87918 1.33386 3.54537 1.05679 4.28074C0.784003 4.98062 0.598011 5.78245 0.54428 6.95351C0.491927 8.13146 0.478149 8.5062 0.478149 11.5014C0.478149 14.4938 0.491927 14.8685 0.54428 16.0437C0.599389 17.2175 0.784003 18.018 1.05679 18.7192C1.33922 19.4439 1.71534 20.0584 2.32842 20.6714C2.94013 21.2845 3.55459 21.662 4.27927 21.9431C4.98191 22.2159 5.78098 22.4019 6.9548 22.4556C8.13137 22.5079 8.50611 22.5217 11.4999 22.5217C14.4937 22.5217 14.867 22.5079 16.0436 22.4556C17.216 22.4005 18.0192 22.2159 18.7205 21.9431C19.4556 21.6663 20.1214 21.2323 20.6714 20.6714C21.2844 20.0584 21.6606 19.4439 21.943 18.7192C22.2144 18.018 22.4004 17.2175 22.4555 16.0437C22.5079 14.8685 22.5216 14.4938 22.5216 11.5C22.5216 8.5062 22.5079 8.13146 22.4555 6.95489C22.4004 5.78245 22.2144 4.98062 21.943 4.28074C21.666 3.54535 21.232 2.87916 20.6714 2.32852C20.1211 1.76734 19.4548 1.33332 18.7191 1.05688C18.0165 0.784094 17.2147 0.598102 16.0422 0.544371C14.8657 0.492018 14.4923 0.478241 11.4971 0.478241H11.5013H11.4999ZM10.5121 2.46491H11.5013C14.4441 2.46491 14.7926 2.47455 15.954 2.52828C17.0287 2.5765 17.6128 2.75699 18.0013 2.90716C18.5152 3.10693 18.8831 3.34665 19.2688 3.73241C19.6546 4.11817 19.8929 4.48464 20.0927 4.99991C20.2443 5.38705 20.4234 5.9712 20.4716 7.04582C20.5253 8.20724 20.5363 8.5558 20.5363 11.4972C20.5363 14.4387 20.5253 14.7886 20.4716 15.95C20.4234 17.0246 20.2429 17.6074 20.0927 17.9959C19.916 18.4745 19.634 18.9072 19.2675 19.262C18.8817 19.6478 18.5152 19.8861 18 20.0859C17.6142 20.2375 17.03 20.4166 15.954 20.4662C14.7926 20.5185 14.4441 20.5309 11.5013 20.5309C8.55846 20.5309 8.20852 20.5185 7.04711 20.4662C5.97249 20.4166 5.38971 20.2375 5.0012 20.0859C4.52244 19.9095 4.08932 19.6279 3.7337 19.262C3.36688 18.9066 3.08441 18.4735 2.90707 17.9945C2.75689 17.6074 2.57641 17.0233 2.52819 15.9486C2.47584 14.7872 2.46482 14.4387 2.46482 11.4945C2.46482 8.55167 2.47584 8.20448 2.52819 7.04306C2.57779 5.96845 2.75689 5.38429 2.90844 4.99578C3.10821 4.48189 3.34793 4.11404 3.7337 3.72828C4.11946 3.34252 4.48593 3.10417 5.0012 2.9044C5.38971 2.75285 5.97249 2.57375 7.04711 2.52415C8.06386 2.47731 8.45789 2.46353 10.5121 2.46215V2.46491V2.46491ZM17.3841 4.29452C17.2104 4.29452 17.0384 4.32873 16.878 4.3952C16.7175 4.46166 16.5717 4.55909 16.4489 4.6819C16.3261 4.80472 16.2287 4.95052 16.1622 5.11099C16.0957 5.27145 16.0615 5.44344 16.0615 5.61713C16.0615 5.79081 16.0957 5.9628 16.1622 6.12327C16.2287 6.28373 16.3261 6.42954 16.4489 6.55235C16.5717 6.67517 16.7175 6.77259 16.878 6.83906C17.0384 6.90553 17.2104 6.93974 17.3841 6.93974C17.7349 6.93974 18.0713 6.80039 18.3193 6.55235C18.5674 6.30432 18.7067 5.9679 18.7067 5.61713C18.7067 5.26635 18.5674 4.92994 18.3193 4.6819C18.0713 4.43386 17.7349 4.29452 17.3841 4.29452V4.29452ZM11.5013 5.84032C10.7505 5.8286 10.0049 5.96636 9.30791 6.24556C8.6109 6.52476 7.9764 6.93983 7.44134 7.46661C6.90628 7.99338 6.48137 8.62133 6.19132 9.3139C5.90128 10.0065 5.75191 10.7498 5.75191 11.5007C5.75191 12.2515 5.90128 12.9949 6.19132 13.6874C6.48137 14.38 6.90628 15.008 7.44134 15.5347C7.9764 16.0615 8.6109 16.4766 9.30791 16.7558C10.0049 17.035 10.7505 17.1727 11.5013 17.161C12.9872 17.1378 14.4044 16.5313 15.447 15.4723C16.4896 14.4133 17.074 12.9868 17.074 11.5007C17.074 10.0146 16.4896 8.58805 15.447 7.52905C14.4044 6.47005 12.9872 5.8635 11.5013 5.84032V5.84032ZM11.5013 7.82561C12.4758 7.82561 13.4104 8.21273 14.0994 8.90181C14.7885 9.59089 15.1756 10.5255 15.1756 11.5C15.1756 12.4745 14.7885 13.4091 14.0994 14.0982C13.4104 14.7872 12.4758 15.1744 11.5013 15.1744C10.5268 15.1744 9.59217 14.7872 8.90309 14.0982C8.21401 13.4091 7.82689 12.4745 7.82689 11.5C7.82689 10.5255 8.21401 9.59089 8.90309 8.90181C9.59217 8.21273 10.5268 7.82561 11.5013 7.82561V7.82561Z" fill="white"/>
</svg>
